<?xml version="1.0" encoding="UTF-8" standalone="no"?>
<svg
   xmlns:svg="http://www.w3.org/2000/svg"
   xmlns="http://www.w3.org/2000/svg"
   width="256"
   height="256"
   viewBox="0 0 256 256"
   version="1.1"
   id="svg8">
  <defs
     id="defs2" />
  <g
     id="layer1">
    <!-- Círculo de fondo -->
    <circle
       style="fill:#0066cc;fill-opacity:0.8;stroke:none;stroke-width:4;stroke-linecap:round;stroke-linejoin:round"
       id="path10"
       cx="128"
       cy="128"
       r="120" />
    <!-- Olas de marea -->
    <path
       style="fill:none;stroke:#ffffff;stroke-width:8;stroke-linecap:round;stroke-linejoin:miter;stroke-opacity:0.9"
       d="M 30,160 C 50,145 65,175 85,160 C 105,145 120,175 140,160 C 160,145 175,175 195,160 C 215,145 230,175 250,160"
       id="path12" />
    <path
       style="fill:none;stroke:#ffffff;stroke-width:8;stroke-linecap:round;stroke-linejoin:miter;stroke-opacity:0.7"
       d="M 30,130 C 50,115 65,145 85,130 C 105,115 120,145 140,130 C 160,115 175,145 195,130 C 215,115 230,145 250,130"
       id="path14" />
    <path
       style="fill:none;stroke:#ffffff;stroke-width:8;stroke-linecap:round;stroke-linejoin:miter;stroke-opacity:0.5"
       d="M 30,100 C 50,85 65,115 85,100 C 105,85 120,115 140,100 C 160,85 175,115 195,100 C 215,85 230,115 250,100"
       id="path16" />
    <!-- Luna que afecta a las mareas -->
    <circle
       style="fill:#ffffff;fill-opacity:1;stroke:none;stroke-width:4;stroke-linecap:round;stroke-linejoin:round"
       id="path18"
       cx="190"
       cy="60"
       r="30" />
    <!-- Sombra de la luna -->
    <path
       style="fill:#0066cc;fill-opacity:0.6;stroke:none;stroke-width:1px;stroke-linecap:butt;stroke-linejoin:miter;stroke-opacity:1"
       d="M 190,30 A 30,30 0 0 0 190,90 A 27,27 0 0 1 190,36 A 27,27 0 0 1 190,30 z"
       id="path20" />
  </g>
</svg>
